<svg width="43" height="50" viewBox="0 0 43 50" fill="none" xmlns="http://www.w3.org/2000/svg">
<path fill-rule="evenodd" clip-rule="evenodd" d="M10.868 5.83871L0.442883 11.7266L0.422688 12.8709C0.411546 13.5002 0.410388 14.0151 0.420137 14.0151C0.429886 14.0151 4.89525 11.4983 10.3432 8.42226L20.2485 2.82931L20.2777 26.1126L20.3071 49.3959L20.8342 49.6979L21.3615 50L21.8783 49.704L22.395 49.4078L22.4243 26.1178L22.4536 2.82772L32.2606 8.36416L42.0676 13.9005L42.101 12.8047C42.1194 12.2021 42.0933 11.6718 42.0429 11.6261C41.9236 11.5181 21.6232 0.065227 21.4359 0.000209801C21.3573 -0.0270225 16.6018 2.60033 10.868 5.83871ZM16.5346 7.17717C15.5771 7.72035 11.4773 10.0384 7.42395 12.3283L0.0541996 16.4916L0.0298303 22.5153L0.00545339 28.539H7.66071H15.316V36.4138V44.2886L9.25188 40.8663L3.18779 37.444L3.15692 34.2396L3.12616 31.0353H1.56308H0L0.0270408 35.0727L0.0541996 39.1101L6.37941 42.6817C9.85828 44.646 13.906 46.9364 15.3742 47.7713C16.8425 48.606 18.135 49.3234 18.2467 49.3653C18.439 49.4374 18.4495 48.8227 18.4495 37.5151V25.5888H10.788H3.12663L3.15715 21.8775L3.18779 18.1661L9.25083 14.7405L15.3139 11.3148L15.3439 17.232L15.374 23.1493H16.8828H18.3915L18.4212 14.6675C18.4376 10.0026 18.4115 6.1866 18.3632 6.18762C18.3149 6.18864 17.4921 6.63389 16.5346 7.17717ZM24.2525 27.8015C24.2525 39.6901 24.2916 49.4163 24.3395 49.4154C24.3875 49.4145 25.0794 49.0414 25.8773 48.5863L27.3281 47.7589L27.3574 29.5357L27.3868 11.3125L29.4171 12.4584L31.4473 13.6043L31.4768 29.5102L31.5062 45.4159L32.8989 44.6263C33.6649 44.1919 34.3315 43.7995 34.3804 43.7544C34.4292 43.7091 34.468 37.3056 34.4666 29.5245C34.4651 21.7432 34.5035 15.3799 34.5518 15.3837C34.6002 15.3876 35.7365 16.0154 37.077 16.779L39.5142 18.1672L39.5438 29.4804C39.5601 35.7026 39.5946 40.7935 39.6204 40.7935C39.6464 40.7935 40.3257 40.4233 41.1301 39.9709L42.5926 39.1483L42.5924 27.8023L42.5921 16.4561L33.5094 11.3236C28.5138 8.50066 24.3875 6.18989 24.3395 6.18842C24.2916 6.18694 24.2525 15.9128 24.2525 27.8015Z" fill="#1D1C1D"/>
</svg>
