<svg width="36" height="36" viewBox="0 0 36 36" fill="none" xmlns="http://www.w3.org/2000/svg">
<rect opacity="0.05" width="36" height="36" rx="8" fill="#1994C1"/>
<path d="M22.4 17H16.6C16.048 17 16 17.447 16 18C16 18.553 16.048 19 16.6 19H22.4C22.952 19 23 18.553 23 18C23 17.447 22.952 17 22.4 17ZM24.4 22H16.6C16.048 22 16 22.447 16 23C16 23.553 16.048 24 16.6 24H24.4C24.952 24 25 23.553 25 23C25 22.447 24.952 22 24.4 22ZM16.6 14H24.4C24.952 14 25 13.553 25 13C25 12.447 24.952 12 24.4 12H16.6C16.048 12 16 12.447 16 13C16 13.553 16.048 14 16.6 14ZM13.4 17H11.6C11.048 17 11 17.447 11 18C11 18.553 11.048 19 11.6 19H13.4C13.952 19 14 18.553 14 18C14 17.447 13.952 17 13.4 17ZM13.4 22H11.6C11.048 22 11 22.447 11 23C11 23.553 11.048 24 11.6 24H13.4C13.952 24 14 23.553 14 23C14 22.447 13.952 22 13.4 22ZM13.4 12H11.6C11.048 12 11 12.447 11 13C11 13.553 11.048 14 11.6 14H13.4C13.952 14 14 13.553 14 13C14 12.447 13.952 12 13.4 12Z" fill="#1994C1"/>
</svg>
