<svg width="24" height="24" viewBox="0 0 24 24" fill="none" xmlns="http://www.w3.org/2000/svg">
<path d="M17.125 9.5H16.5V7C16.5 5.67392 15.9732 4.40215 15.0355 3.46447C14.0979 2.52678 12.8261 2 11.5 2C10.1739 2 8.90214 2.52678 7.96446 3.46447C7.02678 4.40215 6.5 5.67392 6.5 7V9.5H5.875C5.37788 9.50053 4.90127 9.69824 4.54976 10.0498C4.19824 10.4013 4.00053 10.8779 4 11.375V20.125C4.00053 20.6221 4.19824 21.0987 4.54976 21.4502C4.90127 21.8018 5.37788 21.9995 5.875 22H17.125C17.6221 21.9995 18.0987 21.8018 18.4502 21.4502C18.8018 21.0987 18.9995 20.6221 19 20.125V11.375C18.9995 10.8779 18.8018 10.4013 18.4502 10.0498C18.0987 9.69824 17.6221 9.50053 17.125 9.5ZM7.75 7C7.75 6.00544 8.14509 5.05161 8.84835 4.34835C9.55161 3.64509 10.5054 3.25 11.5 3.25C12.4946 3.25 13.4484 3.64509 14.1516 4.34835C14.8549 5.05161 15.25 6.00544 15.25 7V9.5H7.75V7ZM17.75 20.125C17.7497 20.2907 17.6838 20.4495 17.5667 20.5667C17.4495 20.6838 17.2907 20.7497 17.125 20.75H5.875C5.70932 20.7497 5.5505 20.6838 5.43335 20.5667C5.3162 20.4495 5.25026 20.2907 5.25 20.125V11.375C5.25026 11.2093 5.3162 11.0505 5.43335 10.9334C5.5505 10.8162 5.70932 10.7503 5.875 10.75H17.125C17.2907 10.7503 17.4495 10.8162 17.5667 10.9334C17.6838 11.0505 17.7497 11.2093 17.75 11.375V20.125Z" fill="#1994C1"/>
<path d="M11.5 12.834C11.1131 12.8336 10.7381 12.9679 10.4394 13.2138C10.1407 13.4597 9.93689 13.8019 9.86297 14.1817C9.78905 14.5614 9.84962 14.9551 10.0343 15.2951C10.2189 15.6351 10.5162 15.9002 10.875 16.045V18.045C10.875 18.2107 10.9408 18.3697 11.058 18.4869C11.1752 18.6041 11.3342 18.67 11.5 18.67C11.6657 18.67 11.8247 18.6041 11.9419 18.4869C12.0591 18.3697 12.125 18.2107 12.125 18.045V16.045C12.4838 15.9002 12.781 15.6351 12.9656 15.2951C13.1503 14.9551 13.2109 14.5614 13.137 14.1817C13.063 13.8019 12.8592 13.4597 12.5605 13.2138C12.2618 12.9679 11.8869 12.8336 11.5 12.834ZM11.5 14.084C11.5824 14.084 11.6631 14.1084 11.7316 14.1542C11.8002 14.2001 11.8537 14.2652 11.8852 14.3414C11.9168 14.4176 11.925 14.5014 11.9089 14.5823C11.8929 14.6632 11.8531 14.7375 11.7948 14.7958C11.7365 14.8542 11.6622 14.8939 11.5813 14.9099C11.5004 14.926 11.4166 14.9178 11.3404 14.8862C11.2642 14.8547 11.1991 14.8012 11.1532 14.7326C11.1074 14.6641 11.083 14.5835 11.083 14.501C11.083 14.3904 11.1269 14.2843 11.2051 14.2061C11.2833 14.1279 11.3894 14.084 11.5 14.084Z" fill="#1994C1"/>
</svg>
