<svg width="24" height="24" viewBox="0 0 24 24" fill="none" xmlns="http://www.w3.org/2000/svg">
<path d="M9.50536 0.262247C11.15 -0.0874156 12.8504 -0.0874156 14.495 0.262247H14.4984C16.1402 0.611384 17.6895 1.30112 19.0451 2.2864L19.0672 2.30233C20.4172 3.2834 21.5449 4.53563 22.3774 5.97789L22.4071 6.02908C23.2364 7.46612 23.7543 9.05993 23.9273 10.708L23.9353 10.7838C24.1083 12.4303 23.9334 14.0945 23.4218 15.6698L23.3997 15.7377C22.8868 17.317 22.0468 18.7717 20.9339 20.0082L20.9045 20.0408C19.7868 21.2826 18.4188 22.2764 16.8896 22.9576L16.8777 22.9629C15.3434 23.6464 13.6813 23.9998 12.0002 24C10.3186 24.0003 8.65592 23.6471 7.12109 22.9637L7.10927 22.9583C5.58041 22.277 4.21283 21.2832 3.09546 20.0416L3.06611 20.0089C1.95324 18.7726 1.11324 17.318 0.600259 15.7388L0.57815 15.6709C0.0665816 14.0958 -0.108309 12.4317 0.0647024 10.7854L0.0727072 10.7095C0.245914 9.06097 0.764123 7.46676 1.59399 6.02946L1.62372 5.97827C2.45598 4.53608 3.58345 3.28386 4.93312 2.30271L4.95523 2.28678C6.31081 1.30136 7.86011 0.611498 9.50193 0.262247H9.50536Z" fill="#379F00"/>
<path d="M10.8358 17.1876L5.99482 12.3718L7.34991 11.0238L10.8346 14.4904L18.1914 7.17188L19.5465 8.51992L10.8358 17.1876Z" fill="white"/>
</svg>
