<svg width="24" height="24" viewBox="0 0 24 24" fill="none" xmlns="http://www.w3.org/2000/svg">
<circle opacity="0.3" cx="12" cy="12" r="12" fill="#1D1C1D"/>
<path fill-rule="evenodd" clip-rule="evenodd" d="M18.1538 9.26577C18.498 9.2941 18.7547 9.59493 18.7272 9.9391C18.7222 9.99577 18.2705 15.5883 18.0105 17.9341C17.8488 19.3899 16.8872 20.2758 15.4355 20.3024C14.3247 20.3216 13.253 20.3324 12.2055 20.3324C11.0763 20.3324 9.9755 20.3199 8.88633 20.2974C7.493 20.2699 6.52883 19.3666 6.37133 17.9399C6.10883 15.5733 5.65967 9.99493 5.6555 9.9391C5.62717 9.59493 5.88383 9.29327 6.228 9.26577C6.56717 9.2566 6.87383 9.49493 6.90133 9.83827C6.90399 9.87444 7.08762 12.1525 7.28772 14.4064L7.32791 14.8561C7.42869 15.9765 7.53085 17.053 7.61383 17.8024C7.703 18.6133 8.1405 19.0316 8.91217 19.0474C10.9955 19.0916 13.1213 19.0941 15.413 19.0524C16.233 19.0366 16.6763 18.6266 16.768 17.7966C17.0263 15.4683 17.4763 9.89493 17.4813 9.83827C17.5088 9.49493 17.813 9.25493 18.1538 9.26577ZM13.9545 3.66602C14.7195 3.66602 15.392 4.18185 15.5895 4.92102L15.8012 5.97185C15.8696 6.31633 16.1719 6.5679 16.5219 6.57342L19.2567 6.57352C19.6017 6.57352 19.8817 6.85352 19.8817 7.19852C19.8817 7.54352 19.6017 7.82352 19.2567 7.82352L16.5463 7.82339C16.5421 7.82347 16.5379 7.82352 16.5337 7.82352L16.5133 7.82268L7.86802 7.82341C7.86129 7.82348 7.85457 7.82352 7.84783 7.82352L7.835 7.82268L5.125 7.82352C4.78 7.82352 4.5 7.54352 4.5 7.19852C4.5 6.85352 4.78 6.57352 5.125 6.57352L7.85917 6.57268L7.94335 6.56735C8.25692 6.52667 8.51753 6.28852 8.58117 5.97185L8.78367 4.95852C8.9895 4.18185 9.662 3.66602 10.427 3.66602H13.9545ZM13.9545 4.91602H10.427C10.227 4.91602 10.0512 5.05018 10.0003 5.24268L9.80617 6.21768C9.78149 6.34118 9.74556 6.46019 9.69957 6.57374H14.6822C14.6361 6.46019 14.6001 6.34118 14.5753 6.21768L14.3728 5.20435C14.3303 5.05018 14.1545 4.91602 13.9545 4.91602Z" fill="white"/>
</svg>
