<svg width="48" height="48" viewBox="0 0 48 48" fill="none" xmlns="http://www.w3.org/2000/svg">
<path d="M36 0H12C5.37258 0 0 5.37258 0 12V36C0 42.6274 5.37258 48 12 48H36C42.6274 48 48 42.6274 48 36V12C48 5.37258 42.6274 0 36 0Z" fill="#F8F8F8"/>
<path d="M25.444 16C24.888 16 23.5 16 23 16C22.5 16 22.3417 16.2084 22.111 16.889H18V18.667H30.444V16.889H26.333C26.0676 16.4171 26 16 25.444 16ZM29.555 19.556H18.889V30.222C18.8903 30.6932 19.0781 31.1446 19.4112 31.4778C19.7444 31.8109 20.1959 31.9987 20.667 32H27.778C28.2491 31.9987 28.7006 31.8109 29.0338 31.4778C29.3669 31.1446 29.5547 30.6932 29.556 30.222L29.555 19.556Z" fill="#616061"/>
</svg>
