<svg width="48" height="48" viewBox="0 0 48 48" fill="none" xmlns="http://www.w3.org/2000/svg">
<path d="M43.6078 23.6385L43.6074 23.6381L39.7173 20.8941L39.7173 20.8941C39.5428 20.7711 39.3379 20.6984 39.1249 20.6839C38.9119 20.6694 38.6991 20.7137 38.5095 20.8119C38.32 20.91 38.161 21.0583 38.0499 21.2406C37.9389 21.4229 37.88 21.6323 37.8797 21.8457V21.8458V23.4238H19.2998C19.1433 23.4173 18.9871 23.4424 18.8405 23.4977C18.6933 23.5531 18.5588 23.6378 18.4451 23.7467C18.3315 23.8555 18.241 23.9862 18.1792 24.131C18.1174 24.2757 18.0855 24.4315 18.0855 24.5888C18.0855 24.7462 18.1174 24.9019 18.1792 25.0467C18.241 25.1914 18.3315 25.3221 18.4451 25.431C18.5588 25.5398 18.6933 25.6245 18.8405 25.68C18.9871 25.7352 19.1433 25.7603 19.2998 25.7538H37.8797V27.3318V27.332C37.88 27.5454 37.9389 27.7547 38.0499 27.937C38.161 28.1193 38.32 28.2677 38.5095 28.3658C38.6991 28.464 38.9119 28.5082 39.1249 28.4937C39.3379 28.4792 39.5428 28.4065 39.7173 28.2836L39.7173 28.2835L43.6074 25.5396L43.6078 25.5392C43.7591 25.4311 43.8824 25.2885 43.9674 25.1232C44.0525 24.9579 44.0969 24.7747 44.0969 24.5888C44.0969 24.4029 44.0525 24.2197 43.9674 24.0544C43.8824 23.8891 43.7591 23.7465 43.6078 23.6385Z" fill="#1994C1" stroke="#1994C1" stroke-width="0.2"/>
<path d="M33.0313 31.7682L33.0314 31.768C33.1864 31.5007 33.4412 31.3058 33.7398 31.2262C34.0384 31.1466 34.3564 31.1889 34.6239 31.3436M33.0313 31.7682L34.6239 31.3436M33.0313 31.7682C31.4507 34.5058 29.011 36.6454 26.0905 37.8551C23.17 39.0648 19.9319 39.2771 16.8785 38.4589C13.8251 37.6407 11.127 35.8379 9.20258 33.33C7.27821 30.8221 6.23513 27.7493 6.23513 24.5882C6.23513 21.4271 7.27821 18.3543 9.20258 15.8464C11.127 13.3385 13.8251 11.5357 16.8785 10.7175C19.9319 9.89934 23.17 10.1116 26.0905 11.3213C29.0103 12.5307 31.4496 14.6696 33.0302 17.4064C33.1029 17.5452 33.2027 17.6679 33.3239 17.7673C33.4456 17.8671 33.5863 17.9412 33.7375 17.9852C33.8886 18.0292 34.0471 18.0421 34.2034 18.0232C34.3597 18.0043 34.5105 17.9539 34.6468 17.8751C34.7831 17.7963 34.902 17.6907 34.9964 17.5648C35.0908 17.4388 35.1587 17.295 35.196 17.142C35.2333 16.9891 35.2393 16.8302 35.2135 16.6749C35.1879 16.5203 35.1314 16.3725 35.0474 16.2403C33.2092 13.0575 30.3724 10.57 26.9767 9.16341C23.5802 7.75657 19.8145 7.50975 16.2636 8.46123C12.7126 9.41271 9.57479 11.5093 7.33684 14.4259C5.09889 17.3424 3.88584 20.916 3.88584 24.5922C3.88584 28.2684 5.09889 31.8419 7.33684 34.7585C9.57479 37.6751 12.7126 39.7717 16.2636 40.7232C19.8145 41.6746 23.5802 41.4278 26.9767 40.021C30.373 38.6142 33.2102 36.126 35.0483 32.9424M33.0313 31.7682L35.0483 32.9424M34.6239 31.3436C34.7571 31.4204 34.8738 31.5227 34.9673 31.6447C35.0608 31.7668 35.1293 31.9062 35.1687 32.0548C35.2082 32.2034 35.2178 32.3584 35.1972 32.5108C35.1765 32.6631 35.1259 32.8098 35.0483 32.9424M34.6239 31.3436L35.0483 32.9424" fill="#1D1C1D" stroke="#1D1C1D" stroke-width="0.2"/>
</svg>
