<svg width="24" height="24" viewBox="0 0 24 24" fill="none" xmlns="http://www.w3.org/2000/svg">
<g clip-path="url(#clip0_723_1070)">
<path d="M16.9189 6.27388C16.9485 6.24645 16.9875 6.23135 17.0279 6.23167C17.1021 6.23167 17.1912 6.27806 17.2724 6.35878C17.6178 6.70301 17.9627 7.0477 18.3069 7.39285L18.6869 7.7728C18.7487 7.83466 18.8098 7.89651 18.8701 7.95837C19.0033 8.09198 19.1406 8.23069 19.2784 8.36476C19.4188 8.50699 19.6093 8.58858 19.8091 8.59208C19.912 8.59047 20.0134 8.56777 20.1072 8.5254C20.2009 8.48303 20.285 8.42188 20.3542 8.34574C20.6687 8.01698 20.8799 7.60329 20.9619 7.15579C20.967 7.13459 20.9737 7.11381 20.9819 7.09363C20.9865 7.0811 20.9911 7.06811 20.9953 7.05512C20.9985 7.04586 21 7.03614 21 7.02636V6.43347C21 6.42516 20.999 6.41688 20.9967 6.40888C20.9897 6.3829 20.9823 6.35646 20.9749 6.33002C20.9596 6.27574 20.9438 6.2196 20.9285 6.1644C20.8337 5.75798 20.6282 5.38577 20.3347 5.08904C19.9445 4.69424 19.4291 4.17466 18.8966 3.65414C18.5633 3.32713 18.1372 3.11114 17.6764 3.03574C17.6605 3.03209 17.6449 3.02681 17.6301 3.01997C17.6185 3.01486 17.6073 3.01022 17.5957 3.00605C17.5855 3.00232 17.5746 3.00044 17.5637 3.00048H16.9722C16.9643 3.00049 16.9563 3.00142 16.9486 3.00326L16.8497 3.02878C16.7783 3.04734 16.7041 3.06636 16.6317 3.0877C16.2263 3.20719 15.8588 3.42949 15.5647 3.73301C14.5965 4.70306 13.6107 5.68795 12.6569 6.63991L11.7647 7.53156C11.7439 7.55198 11.723 7.57239 11.7003 7.59373C11.6859 7.571 11.6729 7.54734 11.6604 7.52692C11.4785 7.20249 11.296 6.87775 11.1129 6.5527C10.6555 5.74177 10.1823 4.90301 9.73325 4.06935C9.4948 3.62631 9.16217 3.15265 8.50433 3.00234C8.49751 3.00065 8.49049 2.99987 8.48346 3.00002H8.03114C8.02056 2.99986 8.01003 3.00159 8.00006 3.00512C7.96341 3.01811 7.92676 3.03017 7.88964 3.0427C7.8066 3.07007 7.72031 3.09883 7.63727 3.13548C7.34129 3.26631 7.26614 3.43749 7.37609 3.74739L8.59202 7.23234L9.25588 9.1344C9.27676 9.19378 9.29671 9.25362 9.31897 9.31996L9.31062 9.31672L7.83212 8.80362C6.53315 8.35409 5.19243 7.88924 3.87722 7.41883C3.76641 7.37469 3.64893 7.34959 3.52975 7.3446C3.22959 7.3446 3.14794 7.58028 3.06165 7.83033C3.05191 7.85909 3.03939 7.88832 3.02593 7.91893C3.01944 7.93378 3.01294 7.94909 3.00691 7.96533C3.00232 7.97651 2.99995 7.98849 2.99995 8.00058V8.48491C3.00001 8.49804 3.00286 8.51101 3.0083 8.52295C3.03475 8.58141 3.05887 8.64404 3.08253 8.70481C3.13345 8.85637 3.20595 8.99981 3.29779 9.13069C3.44938 9.32052 3.6362 9.47931 3.84799 9.59832C4.75866 10.1174 5.68928 10.6366 6.58928 11.1385L7.52825 11.6623L7.59459 11.7003C7.57325 11.7231 7.55238 11.7467 7.53057 11.7667L6.5415 12.7562C5.64104 13.6581 4.70995 14.5905 3.78954 15.5031C3.35763 15.9322 3.10805 16.391 3.02732 16.9055L3.01248 16.9264C3.00408 16.9404 2.99944 16.9564 2.99903 16.9727V17.5642C2.99896 17.5724 3.00006 17.5805 3.00227 17.5884C3.01201 17.6246 3.02129 17.6607 3.03104 17.6969C3.05238 17.7772 3.07372 17.8574 3.09645 17.9368C3.20303 18.3097 3.40312 18.6492 3.67774 18.9231C4.12402 19.3721 4.59954 19.8509 5.07645 20.3213C5.41852 20.6649 5.86115 20.8906 6.34016 20.9657C6.34939 20.9689 6.35838 20.9728 6.36707 20.9773C6.37681 20.9824 6.38655 20.9875 6.39676 20.9917C6.40823 20.9964 6.42052 20.999 6.43294 20.9991H7.02444C7.03292 20.999 7.04135 20.9978 7.04949 20.9954C7.09171 20.9838 7.13531 20.974 7.18124 20.9638C7.28999 20.9443 7.39562 20.9103 7.49531 20.8627L7.53799 20.84C7.80475 20.7008 8.08031 20.5533 8.31969 20.3626C8.4006 20.3028 8.46765 20.2263 8.51625 20.1382C8.56485 20.0501 8.59386 19.9526 8.60129 19.8523C8.61289 19.6472 8.52521 19.4394 8.35449 19.2677C7.92305 18.8348 7.49006 18.4018 7.05552 17.9688L6.38748 17.2993C6.18011 17.092 6.18011 16.9899 6.38748 16.7793C6.47145 16.6944 6.81057 16.3562 6.89779 16.2653C6.91681 16.2449 6.93676 16.2244 6.95671 16.2036C6.98872 16.2337 7.01794 16.2616 7.04671 16.2899L9.35841 18.602C9.36815 18.6113 9.37743 18.621 9.38671 18.6308C9.4199 18.6667 9.45589 18.6999 9.49434 18.7301C9.56213 18.7806 9.64451 18.8078 9.72908 18.8075C9.78216 18.8079 9.83475 18.7974 9.88364 18.7768C9.93254 18.7561 9.97671 18.7257 10.0135 18.6874C10.0782 18.6217 10.1168 18.5346 10.1218 18.4425C10.1269 18.3504 10.0981 18.2596 10.0408 18.1873C10.0066 18.1433 9.96894 18.1022 9.9281 18.0643L9.90165 18.0379L7.54681 15.6784L7.84464 15.3755C7.90774 15.3124 8.16614 15.0605 8.40134 14.8253L8.96083 14.2644C8.97057 14.2732 8.97985 14.2825 8.98959 14.2922L9.52913 14.8318C10.0455 15.3486 10.5794 15.883 11.1064 16.4058C11.1603 16.4587 11.1728 16.4986 11.1626 16.5914C10.977 18.2109 11.8042 19.9692 13.0837 20.6818C13.2593 20.7726 13.4427 20.8478 13.6316 20.9063C13.7141 20.9346 13.799 20.9634 13.8802 20.9944C13.8909 20.9987 13.9022 21.0009 13.9136 21.0009H14.4355C14.4439 21.0009 14.4521 20.9996 14.4601 20.9972C14.892 20.8775 15.2112 20.7054 15.4645 20.4568C15.8041 20.1223 16.017 19.6769 16.114 19.0942C16.3766 17.5336 15.8987 16.1669 14.693 15.0317C14.4462 14.7998 14.1363 14.6216 13.7466 14.4885C13.7104 14.4744 13.6802 14.4481 13.6612 14.4142C13.5082 14.0431 13.375 13.7003 13.2549 13.3672C13.249 13.3354 13.2544 13.3026 13.2702 13.2744C13.2907 13.2636 13.3137 13.2583 13.337 13.2591C13.3462 13.2587 13.3555 13.26 13.3643 13.2628C13.7471 13.3992 14.1266 13.5486 14.4142 13.6636C14.4402 13.674 14.4625 13.6919 14.4782 13.7151C14.7157 14.4694 15.2242 15.0642 16.0328 15.5332C16.7931 15.9744 17.5637 16.198 18.3273 16.198C18.6453 16.1974 18.9621 16.1599 19.2714 16.0862C20.0814 15.8951 20.607 15.478 20.8779 14.8109C20.9104 14.7316 20.9355 14.6499 20.9601 14.571C20.9712 14.5353 20.9823 14.4996 20.9939 14.4639C20.9971 14.4546 20.9986 14.4449 20.9986 14.4351V13.8784C20.9987 13.8703 20.9976 13.8621 20.9953 13.8543C20.8668 13.3751 20.7077 13.0332 20.4794 12.7465C19.8402 11.943 18.9615 11.4317 17.8685 11.2267C17.6004 11.1846 17.3289 11.1675 17.0576 11.1756H16.8915C16.7806 11.1756 16.6619 11.1756 16.545 11.1701C16.5127 11.1711 16.4807 11.1638 16.4522 11.1487C15.8143 10.5169 15.1732 9.87574 14.5534 9.25641L14.268 8.9711L14.8336 8.4079L15.3128 7.95094L17.2399 9.88131L17.3814 10.0237C17.5002 10.143 17.6226 10.2668 17.7456 10.386C17.826 10.4713 17.9369 10.5213 18.0541 10.5252C18.1044 10.5249 18.1541 10.5143 18.2002 10.4941C18.2463 10.4739 18.2878 10.4446 18.3222 10.4079C18.4823 10.2459 18.4702 10.008 18.293 9.82981C17.5582 9.09218 16.8085 8.34527 16.0857 7.62064L15.9326 7.46754C15.9061 7.44156 15.8792 7.41698 15.8537 7.39424C15.8846 7.35991 15.9156 7.32558 15.9465 7.29125C16.0616 7.15904 16.7983 6.38012 16.9189 6.27388ZM8.22645 3.79332C8.25131 3.78943 8.27644 3.78741 8.3016 3.78729C8.52428 3.78729 8.74464 3.93017 8.8764 4.15842C9.05083 4.46229 9.22434 4.77404 9.39181 5.07512C9.46325 5.20316 9.5347 5.33167 9.60614 5.45924L12.3572 10.3768L12.1507 10.3049C11.5138 10.0826 10.9121 9.87295 10.3057 9.6577C10.2828 9.64543 10.2643 9.62628 10.2528 9.60295C9.55372 7.60857 8.84949 5.58496 8.22645 3.79332ZM9.22294 12.8397C8.0664 13.9925 6.88387 15.1751 5.84006 16.2189C5.31026 16.7487 5.31165 17.3323 5.84423 17.8667C6.18939 18.2128 6.53485 18.5586 6.88062 18.904L7.70129 19.7247C7.72542 19.7488 7.74769 19.7739 7.77366 19.8003C7.48534 20.0715 7.10433 20.2224 6.70851 20.222C6.35471 20.2248 6.01243 20.0963 5.74774 19.8616C5.18234 19.3511 4.64348 18.8119 4.1333 18.2462C3.63506 17.6937 3.6499 16.8201 4.16717 16.2569C4.45897 15.9391 4.77258 15.6297 5.07598 15.3291C5.19196 15.2143 5.30763 15.0996 5.423 14.9849L6.35593 14.0547C6.97805 13.4335 7.62104 12.7915 8.2515 12.1573C8.29789 12.1109 8.31366 12.1109 8.31923 12.1109C8.34364 12.1143 8.36687 12.1235 8.38696 12.1378C8.64026 12.2872 8.89959 12.431 9.17562 12.5832L9.39227 12.7033C9.33252 12.7449 9.27592 12.7908 9.22294 12.8406V12.8397ZM11.4395 15.5699L9.53423 13.6636L10.0974 13.099L10.219 13.1654C10.3846 13.2582 10.5558 13.3509 10.7205 13.4502C10.7595 13.4838 10.7878 13.5279 10.8021 13.5773C10.8824 13.8019 10.9603 14.0269 11.0387 14.2519C11.1593 14.5998 11.2841 14.9593 11.4145 15.3105C11.4513 15.3922 11.4601 15.4836 11.4395 15.5708V15.5699ZM13.4636 15.2307C13.8904 15.3314 14.2583 15.5949 14.5886 16.037C15.2381 16.9032 15.4956 17.7721 15.3824 18.693C15.3457 18.9878 15.2677 19.2759 15.1504 19.5489C14.9704 19.9664 14.6053 20.2118 14.1729 20.2118C14.0236 20.2109 13.8757 20.1829 13.7364 20.1292C13.2321 19.9386 12.8225 19.566 12.4838 18.9903C11.9387 18.0625 11.7879 17.1657 12.0199 16.2463C12.0613 16.0922 12.1222 15.9441 12.2013 15.8055C12.2465 15.7303 12.2735 15.6455 12.2803 15.558C12.2871 15.4705 12.2734 15.3826 12.2403 15.3013C12.1183 14.9682 12.0013 14.6267 11.8882 14.2959C11.8464 14.1722 11.8043 14.0496 11.762 13.9281L11.7578 13.9165L12.5928 13.8237C12.6197 13.8923 12.6476 13.9629 12.6763 14.0362C12.7719 14.2783 12.8707 14.5288 12.9603 14.7863C13.0452 15.0364 13.1959 15.1686 13.4636 15.2317V15.2307ZM16.9894 11.9096C17.2793 11.912 17.5679 11.9491 17.849 12.02C18.7602 12.2389 19.4314 12.6569 19.9023 13.2971C20.1399 13.6219 20.2401 13.9267 20.2094 14.2352C20.163 14.688 19.9162 15.0081 19.4713 15.1862C19.1055 15.3345 18.7147 15.4115 18.3199 15.4131C17.7595 15.4131 17.193 15.2604 16.5867 14.9464C16.0643 14.6759 15.6923 14.3498 15.4501 13.9499C15.35 13.7712 15.2717 13.5812 15.2168 13.3839C15.1704 13.2368 15.0952 13.0758 14.8851 12.9974C14.4063 12.8193 13.9781 12.6551 13.5759 12.495C13.48 12.4551 13.3773 12.4339 13.2734 12.4324C13.0878 12.4324 12.9148 12.5103 12.7631 12.6643L12.7566 12.6708C12.6935 12.7339 12.6304 12.7975 12.5669 12.8601C12.379 13.0457 12.1897 13.1352 11.9879 13.1352C11.8299 13.13 11.6759 13.0843 11.5407 13.0025C10.6899 12.5266 9.70171 11.9736 8.74001 11.4313C7.34825 10.6454 5.86372 9.80754 4.06928 8.79203C3.97368 8.73449 3.89676 8.65054 3.84778 8.55028C3.79881 8.45003 3.77987 8.33775 3.79325 8.22698L4.34578 8.41904L5.7264 8.90244L7.1047 9.38306C9.79774 10.3225 12.5822 11.2935 15.3225 12.2445C15.3904 12.2673 15.4615 12.279 15.5332 12.2793C15.6003 12.2816 15.6669 12.2668 15.7266 12.2361C16.1124 12.0185 16.5487 11.9061 16.9917 11.9105L16.9894 11.9096ZM15.5828 11.4308C15.5491 11.4466 15.5124 11.4549 15.4752 11.4549C15.436 11.4542 15.3972 11.4467 15.3606 11.4326C15.0057 11.3014 14.6424 11.1752 14.2912 11.0532C14.0528 10.9697 13.8055 10.8838 13.5638 10.7975C13.5153 10.7804 13.4731 10.7491 13.4427 10.7075C13.3453 10.5466 13.2535 10.3786 13.1644 10.2163C13.1421 10.1754 13.118 10.1346 13.0971 10.0938L13.6728 9.51806L15.5828 11.4308ZM12.7677 9.29074C12.7419 9.31723 12.7185 9.34595 12.6977 9.37656L12.6235 9.24481C12.4444 8.92517 12.2751 8.62316 12.1132 8.32254C12.117 8.30578 12.1243 8.28999 12.1345 8.27615C12.2867 8.11749 12.4458 7.95929 12.5984 7.8062L12.758 7.64986L13.7457 6.66172C14.5306 5.87615 15.3162 5.0912 16.1024 4.30687C16.448 3.96218 16.8558 3.77986 17.2812 3.77986C17.563 3.78165 17.8386 3.86198 18.0773 4.01182C18.1848 4.07766 18.2846 4.15548 18.3746 4.24378L18.5519 4.41821C18.9485 4.80837 19.3582 5.21151 19.7497 5.61883C20.3245 6.21821 20.3709 7.0528 19.8647 7.69579C19.8429 7.72362 19.8184 7.75053 19.7887 7.78347L19.6769 7.66749C19.5497 7.53667 19.4301 7.41326 19.3057 7.28986C18.8729 6.85471 18.3589 6.33929 17.8309 5.81368C17.5906 5.5743 17.316 5.44811 17.0362 5.44811C16.7565 5.44811 16.4837 5.57429 16.2448 5.81275C15.1537 6.90435 14.0161 8.0428 12.7701 9.29167L12.7677 9.29074Z" fill="black"/>
<path d="M16.6035 14.0871C16.9927 14.4513 17.4872 14.6503 18.0736 14.6791C18.0796 14.6898 18.0883 14.6988 18.099 14.705C18.1096 14.7112 18.1216 14.7144 18.1339 14.7144C18.1399 14.7142 18.1458 14.7135 18.1516 14.712C18.2156 14.6949 18.2819 14.6796 18.3464 14.6656C18.4969 14.6349 18.6447 14.5924 18.7885 14.5385C18.865 14.5092 18.935 14.465 18.9943 14.4084C19.0536 14.3519 19.1011 14.2842 19.1341 14.2092C19.1662 14.1294 19.182 14.0441 19.1808 13.9582C19.1796 13.8722 19.1614 13.7874 19.1272 13.7086C19.0817 13.5987 19.0204 13.496 18.9453 13.4038C18.6623 13.06 18.2648 12.8299 17.7303 12.7005C17.5952 12.6673 17.4566 12.6505 17.3174 12.6504C17.0922 12.6517 16.8691 12.6942 16.6591 12.7756C16.5699 12.806 16.4881 12.8547 16.4189 12.9186C16.3497 12.9825 16.2947 13.0603 16.2574 13.1468C16.2264 13.2308 16.2135 13.3204 16.2194 13.4098C16.2253 13.4991 16.25 13.5862 16.2917 13.6654C16.3697 13.8234 16.4753 13.9662 16.6035 14.0871ZM16.802 13.3825C16.8076 13.363 16.8405 13.3124 17.0266 13.2688C17.0829 13.2568 17.1399 13.2486 17.1973 13.2442L17.253 13.2382C17.7633 13.2632 18.1414 13.4159 18.4466 13.7188L18.4605 13.7322C18.5473 13.8181 18.6164 13.8937 18.5863 13.9531C18.5635 13.9995 18.4536 14.0459 18.3306 14.0681C18.2405 14.0837 18.1493 14.0916 18.0578 14.0918C17.6487 14.0918 17.2692 13.9238 16.9324 13.5931C16.7983 13.4613 16.7965 13.4019 16.802 13.3825Z" fill="black"/>
<path d="M11.5314 11.5606C11.4281 11.5609 11.3292 11.6023 11.2563 11.6755C11.1834 11.7487 11.1425 11.8479 11.1427 11.9512C11.1416 12.0025 11.1509 12.0534 11.1701 12.101C11.1893 12.1486 11.2179 12.1918 11.2542 12.228C11.2905 12.2642 11.3338 12.2927 11.3815 12.3117C11.4291 12.3307 11.4801 12.3398 11.5314 12.3385C11.5826 12.3397 11.6335 12.3306 11.681 12.3116C11.7285 12.2925 11.7716 12.2641 11.8079 12.2279C11.8441 12.1918 11.8726 12.1486 11.8916 12.1011C11.9107 12.0537 11.9199 12.0028 11.9188 11.9516C11.9196 11.9004 11.9102 11.8495 11.891 11.8019C11.8719 11.7543 11.8434 11.7111 11.8074 11.6746C11.7713 11.6382 11.7283 11.6093 11.6809 11.5898C11.6335 11.5702 11.5827 11.5602 11.5314 11.5606Z" fill="black"/>
<path d="M12.7515 16.7208C12.5464 17.348 12.6587 17.9646 13.0878 18.6062C13.226 18.8225 13.4212 18.9963 13.652 19.1086C13.75 19.1556 13.8573 19.1805 13.966 19.1814C14.2411 19.1814 14.4694 19.0079 14.5617 18.7291C14.6061 18.5853 14.6409 18.4387 14.6661 18.2903C14.6781 18.2262 14.6907 18.1604 14.7051 18.0963C14.7057 18.09 14.7057 18.0836 14.7051 18.0773C14.6721 17.5554 14.4402 16.9899 14.114 16.6364C14.0086 16.5192 13.8865 16.4183 13.7517 16.3367C13.6336 16.2637 13.4981 16.2236 13.3592 16.2207C13.0827 16.2184 12.854 16.4063 12.7515 16.7208ZM13.2502 17.1759C13.2688 17.0831 13.2924 16.9723 13.323 16.8642C13.3393 16.8062 13.3657 16.8062 13.3769 16.8062C13.3984 16.8075 13.4194 16.8139 13.4381 16.8247L13.446 16.8289C13.4878 16.8485 13.5267 16.8738 13.5615 16.9041C14.0254 17.368 14.1804 17.8746 14.043 18.4485C14.0341 18.4847 14.0205 18.5196 14.0027 18.5524C13.9939 18.5695 13.9762 18.5988 13.9563 18.5988C13.9433 18.5978 13.9309 18.5935 13.9201 18.5862L13.8983 18.5732C13.8353 18.5392 13.7767 18.4976 13.7239 18.4494C13.4214 18.1441 13.2655 17.7674 13.2335 17.265C13.2377 17.2372 13.2437 17.2065 13.2502 17.1759Z" fill="black"/>
</g>
<defs>
<clipPath id="clip0_723_1070">
<rect width="18" height="18" fill="white" transform="translate(3 3)"/>
</clipPath>
</defs>
</svg>
