<svg width="24" height="24" viewBox="0 0 24 24" fill="none" xmlns="http://www.w3.org/2000/svg">
<path fill-rule="evenodd" clip-rule="evenodd" d="M7.25743 3.05179C7.09671 3.12152 7.017 3.19679 6.93621 3.35512C6.87724 3.47058 6.86961 3.56847 6.86961 4.20775V4.92993L5.78845 4.93046C4.94925 4.93085 4.65693 4.94283 4.48236 4.98397C3.77364 5.15105 3.17121 5.78119 3.04042 6.49223C2.9869 6.7831 2.98634 19.1407 3.03985 19.4357C3.17167 20.1629 3.83711 20.8284 4.56432 20.9602C4.85717 21.0133 19.1488 21.0133 19.4416 20.9602C20.1688 20.8284 20.8343 20.1629 20.9661 19.4357C21.0196 19.1407 21.019 6.7831 20.9655 6.49223C20.8347 5.78119 20.2323 5.15105 19.5236 4.98397C19.349 4.94283 19.0567 4.93085 18.2175 4.93046L17.1363 4.92993L17.1357 4.20036C17.1352 3.50929 17.131 3.46345 17.0561 3.33121C16.8075 2.89227 16.1994 2.89227 15.9508 3.33121C15.8759 3.46345 15.8717 3.50929 15.8711 4.20036L15.8706 4.92993H12.003H8.13537V4.20775C8.13537 3.56847 8.12774 3.47058 8.06878 3.35512C7.98654 3.19398 7.90669 3.12 7.73968 3.05021C7.57816 2.98274 7.41544 2.98327 7.25743 3.05179ZM6.86961 6.96921C6.88079 7.44928 6.90214 7.75081 6.92812 7.79546C7.14182 8.16267 7.63705 8.24361 7.93622 7.96022C8.1109 7.7948 8.11688 7.76509 8.13537 6.96921L8.15295 6.21327H12.003H15.853L15.8706 6.96921C15.8817 7.44928 15.9031 7.75081 15.9291 7.79546C16.1428 8.16267 16.638 8.24361 16.9372 7.96022C17.1118 7.7948 17.1178 7.76509 17.1363 6.96921L17.1539 6.21327H18.1911C19.1992 6.21327 19.2325 6.21548 19.3762 6.29231C19.4686 6.34167 19.5578 6.42873 19.6136 6.52394L19.703 6.67654V8.05347V9.4304H12.003H4.30294V8.05347V6.67654L4.39221 6.52419C4.4818 6.37131 4.61639 6.27659 4.81276 6.22828C4.87077 6.21401 5.35334 6.20479 5.88514 6.20782L6.85203 6.21327L6.86961 6.96921ZM19.703 14.9738V19.2514L19.6185 19.3955C19.5713 19.476 19.4723 19.5744 19.394 19.6184L19.2539 19.6971H12.003H4.752L4.61193 19.6184C4.53366 19.5744 4.43458 19.476 4.38739 19.3955L4.30294 19.2514V14.9738V10.6962H12.003H19.703V14.9738ZM15.6069 12.0646C15.5113 12.1094 14.7108 12.8871 13.1106 14.4898C11.815 15.7875 10.739 16.8491 10.7195 16.8491C10.7 16.8491 10.2015 16.3655 9.61188 15.7744C9.02217 15.1834 8.49263 14.6748 8.43504 14.6443C8.29985 14.5727 8.00577 14.5732 7.86626 14.6454C7.63283 14.7661 7.47225 15.0771 7.51786 15.3202C7.52946 15.3821 7.58526 15.5022 7.64187 15.5871C7.69847 15.6721 8.31919 16.3142 9.02122 17.014C10.3231 18.3117 10.4626 18.4286 10.712 18.4306C10.7658 18.431 10.8686 18.407 10.9405 18.3774C11.1218 18.3025 16.3423 13.0931 16.4359 12.8937C16.5119 12.7316 16.5171 12.6629 16.4667 12.4816C16.4181 12.3067 16.2739 12.1419 16.1005 12.0632C15.9199 11.9811 15.784 11.9815 15.6069 12.0646Z" fill="black"/>
</svg>
