<svg width="24" height="24" viewBox="0 0 24 24" fill="none" xmlns="http://www.w3.org/2000/svg">
<path d="M21.833 11.7786L21.8325 11.7782L19.8875 10.4062L19.8874 10.4062C19.7927 10.3394 19.6815 10.3 19.5659 10.2921C19.4502 10.2842 19.3347 10.3082 19.2318 10.3615C19.1289 10.4148 19.0426 10.4953 18.9823 10.5943C18.922 10.6933 18.89 10.8069 18.8899 10.9228V10.9229V11.6619H9.65092C9.56632 11.6585 9.4819 11.6722 9.40265 11.702C9.32269 11.7322 9.24968 11.7781 9.18798 11.8372C9.12628 11.8963 9.07716 11.9673 9.04361 12.0459C9.01006 12.1244 8.99277 12.209 8.99277 12.2944C8.99277 12.3798 9.01006 12.4644 9.04361 12.543C9.07716 12.6216 9.12628 12.6925 9.18798 12.7516C9.24968 12.8107 9.32269 12.8567 9.40265 12.8868C9.4819 12.9166 9.56633 12.9303 9.65093 12.9269H18.8899V13.6659V13.6661C18.89 13.7819 18.922 13.8956 18.9823 13.9945C19.0425 14.0935 19.1289 14.174 19.2318 14.2273C19.3347 14.2806 19.4502 14.3046 19.5659 14.2968C19.6815 14.2889 19.7927 14.2494 19.8874 14.1827L19.8875 14.1826L21.8325 12.8106L21.833 12.8103C21.9151 12.7516 21.982 12.6742 22.0282 12.5845C22.0743 12.4948 22.0984 12.3953 22.0984 12.2944C22.0984 12.1935 22.0743 12.0941 22.0282 12.0043C21.982 11.9146 21.9151 11.8372 21.833 11.7786Z" fill="black" stroke="black" stroke-width="0.2"/>
<path d="M17.2869 15.7151L17.3368 15.6284C17.4092 15.6701 17.4726 15.7257 17.5233 15.792C17.5741 15.8582 17.6113 15.9339 17.6327 16.0146C17.6541 16.0953 17.6594 16.1794 17.6481 16.2621C17.6369 16.3448 17.6095 16.4244 17.5674 16.4963C16.6428 18.0976 15.2157 19.3491 13.5075 20.0567C11.7991 20.7643 9.90496 20.8885 8.11884 20.4099C6.33272 19.9313 4.75443 18.8767 3.62875 17.4097C2.50307 15.9427 1.89292 14.1452 1.89292 12.2961C1.89292 10.447 2.50307 8.64951 3.62875 7.1825C4.75443 5.71549 6.33272 4.66091 8.11884 4.18232C9.90496 3.70373 11.7991 3.82788 13.5075 4.53551C15.2152 5.24287 16.6419 6.49374 17.5665 8.09424C17.6118 8.16579 17.6422 8.24571 17.6561 8.32926C17.6701 8.41357 17.6668 8.49984 17.6466 8.58287C17.6263 8.6659 17.5895 8.74396 17.5382 8.81236C17.487 8.88075 17.4224 8.93807 17.3484 8.98084C17.2744 9.02361 17.1926 9.05096 17.1077 9.06123C17.0229 9.0715 16.9368 9.06449 16.8548 9.04061C16.7727 9.01674 16.6963 8.97649 16.6302 8.9223C16.5647 8.86859 16.5107 8.80228 16.4713 8.72731C15.6865 7.36889 14.4755 6.30722 13.0261 5.70683C11.576 5.10619 9.96826 5.00081 8.45219 5.40705C6.93611 5.81328 5.59644 6.70841 4.64096 7.95363C3.68547 9.19884 3.16757 10.7245 3.16757 12.2941C3.16757 13.8637 3.68547 15.3894 4.64096 16.6346C5.59644 17.8798 6.93611 18.7749 8.45219 19.1811C9.96826 19.5874 11.576 19.482 13.0261 18.8814C14.4762 18.2807 15.6875 17.2184 16.4723 15.8591L16.4724 15.8589C16.5566 15.7138 16.6949 15.608 16.857 15.5648C17.0191 15.5216 17.1918 15.5445 17.337 15.6285L17.2869 15.7151ZM17.2869 15.7151C17.3478 15.7502 17.4012 15.797 17.444 15.8528C17.4867 15.9086 17.518 15.9723 17.536 16.0402C17.5541 16.1082 17.5585 16.179 17.549 16.2487C17.5396 16.3183 17.5164 16.3854 17.4809 16.4461L17.2869 15.7151Z" fill="black" stroke="black" stroke-width="0.2"/>
</svg>
