<svg width="24" height="24" viewBox="0 0 24 24" fill="none" xmlns="http://www.w3.org/2000/svg">
<path d="M12.7567 14.79L11.9998 12.9L11.2429 14.79L9.2998 14.9628L10.7758 16.3029L10.3312 18.3L11.9998 17.2389L13.6684 18.3L13.2238 16.3029L14.6998 14.9628L12.7567 14.79ZM6.5998 3H17.3998V4.8H6.5998V3ZM4.7998 6.6H19.1998V8.4H4.7998V6.6Z" fill="black"/>
<path d="M19.2 11.9992V19.1992H4.8V11.9992H19.2ZM19.2 10.1992H4.8C4.32261 10.1992 3.86477 10.3889 3.52721 10.7264C3.18964 11.064 3 11.5218 3 11.9992V19.1992C3 19.6766 3.18964 20.1344 3.52721 20.472C3.86477 20.8096 4.32261 20.9992 4.8 20.9992H19.2C19.6774 20.9992 20.1352 20.8096 20.4728 20.472C20.8104 20.1344 21 19.6766 21 19.1992V11.9992C21 11.5218 20.8104 11.064 20.4728 10.7264C20.1352 10.3889 19.6774 10.1992 19.2 10.1992Z" fill="black"/>
</svg>
