<svg width="48" height="48" viewBox="0 0 48 48" fill="none" xmlns="http://www.w3.org/2000/svg">
<path d="M36 0H12C5.37258 0 0 5.37258 0 12V36C0 42.6274 5.37258 48 12 48H36C42.6274 48 48 42.6274 48 36V12C48 5.37258 42.6274 0 36 0Z" fill="#F3F9F0"/>
<path fill-rule="evenodd" clip-rule="evenodd" d="M15.667 31.5L23.1684 28.2851C23.1675 28.2457 23.167 28.2063 23.167 28.1667C23.167 26.6888 23.8082 25.3606 24.8276 24.4453L15.667 25.6667V31.5ZM33.167 24L31.7001 24.6287C30.7954 23.7253 29.5465 23.1667 28.167 23.1667C27.3579 23.1667 26.5937 23.3589 25.9175 23.7001L15.667 22.3333V16.5L33.167 24ZM26.292 25.875L28.167 24V25.25C30.0087 25.25 31.5003 26.7417 31.5003 28.5833C31.5003 29.2667 31.292 29.9 30.942 30.425L30.0337 29.5167C30.1753 29.2333 30.2503 28.9167 30.2503 28.5833C30.2503 28.0308 30.0308 27.5009 29.6401 27.1102C29.2494 26.7195 28.7195 26.5 28.167 26.5V27.75L26.292 25.875ZM24.8337 28.5833C24.8337 27.9 25.042 27.2667 25.392 26.7417L26.3003 27.65C26.1587 27.9333 26.0837 28.25 26.0837 28.5833C26.0837 29.1359 26.3032 29.6658 26.6939 30.0565C27.0846 30.4472 27.6145 30.6667 28.167 30.6667V29.4167L30.042 31.2917L28.167 33.1667V31.9167C26.3253 31.9167 24.8337 30.425 24.8337 28.5833Z" fill="#379F00"/>
</svg>
