<svg width="48" height="48" viewBox="0 0 48 48" fill="none" xmlns="http://www.w3.org/2000/svg">
<path d="M24 7.5C18.2175 7.5 13.5 12.2175 13.5 18C13.5 21.615 15.345 24.825 18.141 26.7195C12.7905 29.0145 9 34.3245 9 40.5H12C12 33.855 17.355 28.5 24 28.5C30.645 28.5 36 33.855 36 40.5H39C39 34.3245 35.2095 29.016 29.859 26.718C31.286 25.7547 32.4552 24.4563 33.2643 22.9365C34.0734 21.4167 34.4976 19.7217 34.5 18C34.5 12.2175 29.7825 7.5 24 7.5ZM24 10.5C28.1595 10.5 31.5 13.8405 31.5 18C31.5 22.1595 28.1595 25.5 24 25.5C19.8405 25.5 16.5 22.1595 16.5 18C16.5 13.8405 19.8405 10.5 24 10.5Z" fill="#1D1C1D"/>
<circle cx="24" cy="18" r="3" fill="#1994C1"/>
</svg>
