<svg width="48" height="48" viewBox="0 0 48 48" fill="none" xmlns="http://www.w3.org/2000/svg">
<path d="M35.5782 15.7031C35.5782 9.28125 30.3751 4.07812 23.9532 4.07812C17.5313 4.07812 12.3282 9.28125 12.3282 15.7031C12.3282 19.5844 14.2313 23.025 17.1563 25.1344C17.1376 25.1438 17.1235 25.1484 17.1142 25.1531C15.0188 26.0391 13.1392 27.3094 11.522 28.9313C9.90478 30.5484 8.63916 32.4328 7.75322 34.5328C6.88603 36.5859 6.42197 38.7656 6.3751 41.0062C6.37041 41.2172 6.53916 41.3906 6.7501 41.3906H9.55791C9.75947 41.3906 9.92822 41.2266 9.93291 41.025C10.0267 37.4062 11.4751 34.0172 14.0392 31.4484C16.6876 28.7906 20.2032 27.3281 23.9532 27.3281C30.3751 27.3281 35.5782 22.125 35.5782 15.7031ZM23.9532 23.7656C19.5001 23.7656 15.8907 20.1562 15.8907 15.7031C15.8907 11.25 19.5001 7.64062 23.9532 7.64062C28.4063 7.64062 32.0157 11.25 32.0157 15.7031C32.0157 20.1562 28.4063 23.7656 23.9532 23.7656Z" fill="#1D1C1D"/>
<path d="M27.7396 29.2396C26.2046 30.7746 25.3173 32.8363 25.2537 35H25.25V35.25C25.25 37.5043 26.1455 39.6663 27.7396 41.2604C29.3337 42.8545 31.4957 43.75 33.75 43.75C36.0043 43.75 38.1663 42.8545 39.7604 41.2604C41.3545 39.6663 42.25 37.5043 42.25 35.25C42.25 32.9957 41.3545 30.8337 39.7604 29.2396C38.1663 27.6455 36.0043 26.75 33.75 26.75C31.4957 26.75 29.3337 27.6455 27.7396 29.2396ZM34.1434 41.5817C32.6945 41.6719 31.2615 41.263 30.0811 40.4278L38.939 31.5857C39.7709 32.766 40.1774 34.1975 40.086 35.6444C39.9885 37.188 39.3309 38.6429 38.2367 39.7361C37.1426 40.8293 35.6871 41.4855 34.1434 41.5817ZM33.3488 28.8968C34.8021 28.8082 36.2386 29.2219 37.4198 30.0634L28.5634 38.9198C27.7219 37.7386 27.3082 36.3021 27.3968 34.8488C27.4911 33.3011 28.1485 31.8413 29.2449 30.7449C30.3413 29.6485 31.8011 28.9911 33.3488 28.8968Z" fill="#00B4BD" stroke="#00B4BD" stroke-width="0.5"/>
</svg>
