<svg width="24" height="24" viewBox="0 0 24 24" fill="none" xmlns="http://www.w3.org/2000/svg">
<path d="M21 0H3C2.20435 0 1.44129 0.316071 0.87868 0.87868C0.316071 1.44129 0 2.20435 0 3L0 21C0 21.7956 0.316071 22.5587 0.87868 23.1213C1.44129 23.6839 2.20435 24 3 24H12V15.75H9V12H12V9C12 7.80653 12.4741 6.66193 13.318 5.81802C14.1619 4.97411 15.3065 4.5 16.5 4.5H19.5V8.25H18C17.175 8.25 16.5 8.175 16.5 9V12H20.25L18.75 15.75H16.5V24H21C21.7956 24 22.5587 23.6839 23.1213 23.1213C23.6839 22.5587 24 21.7956 24 21V3C24 2.20435 23.6839 1.44129 23.1213 0.87868C22.5587 0.316071 21.7956 0 21 0V0Z" fill="#4769B1"/>
</svg>
