<svg width="24" height="24" viewBox="0 0 24 24" fill="none" xmlns="http://www.w3.org/2000/svg">
<path d="M20.4375 0H3.5625C2.62069 0.00976045 1.72022 0.388228 1.05422 1.05422C0.388228 1.72022 0.00976045 2.62069 0 3.5625L0 20.4375C0.00976045 21.3793 0.388228 22.2798 1.05422 22.9458C1.72022 23.6118 2.62069 23.9902 3.5625 24H20.4375C21.3793 23.9902 22.2798 23.6118 22.9458 22.9458C23.6118 22.2798 23.9902 21.3793 24 20.4375V3.5625C23.9902 2.62069 23.6118 1.72022 22.9458 1.05422C22.2798 0.388228 21.3793 0.00976045 20.4375 0V0Z" fill="#026899"/>
<path d="M8.095 18.0309H5.17V9.23866H8.095V18.0309ZM6.63625 8.0379H6.6145C6.40554 8.05044 6.19624 8.01978 5.99965 7.94782C5.80307 7.87587 5.62344 7.76416 5.47195 7.61969C5.32046 7.47521 5.20038 7.30106 5.1192 7.10811C5.03802 6.91515 4.99749 6.70753 5.00012 6.49822C5.00276 6.2889 5.04851 6.08237 5.13452 5.89152C5.22053 5.70067 5.34496 5.52959 5.50003 5.38898C5.65511 5.24836 5.8375 5.14121 6.03583 5.07423C6.23416 5.00724 6.44417 4.98186 6.65275 4.99966C6.86254 4.98402 7.0733 5.01199 7.27175 5.0818C7.47021 5.15161 7.65206 5.26176 7.80586 5.4053C7.95965 5.54884 8.08207 5.72267 8.16539 5.91584C8.24871 6.10901 8.29114 6.31734 8.28999 6.52772C8.28885 6.73809 8.24417 6.94595 8.15875 7.1382C8.07334 7.33046 7.94904 7.50295 7.79369 7.64481C7.63835 7.78667 7.45531 7.89483 7.25611 7.96249C7.05691 8.03014 6.84586 8.05582 6.63625 8.0379ZM18.6362 18.0309H15.7112V13.3277C15.7112 12.1457 15.2882 11.3394 14.2307 11.3394C13.9011 11.3413 13.58 11.445 13.3115 11.6363C13.043 11.8276 12.8402 12.0972 12.7307 12.4082C12.6559 12.6381 12.6234 12.8798 12.6347 13.1214V18.0317H9.71125C9.71125 18.0317 9.7495 10.0637 9.71125 9.23941H12.6362V10.4844C12.9008 10.025 13.2862 9.64678 13.7506 9.39093C14.2149 9.13508 14.7405 9.01134 15.2702 9.03316C17.1932 9.03316 18.6347 10.2902 18.6347 12.9902L18.6362 18.0309Z" fill="white"/>
</svg>
