<svg width="25" height="24" viewBox="0 0 25 24" fill="none" xmlns="http://www.w3.org/2000/svg">
<g clip-path="url(#clip0_997_557)">
<path d="M12.2506 0C8.99174 0 8.58275 0.0142502 7.30279 0.0725002C6.02533 0.131 5.15335 0.33325 4.39038 0.63C3.60115 0.9365 2.93167 1.3465 2.26469 2.01375C1.59721 2.68075 1.18722 3.35025 0.879731 4.13925C0.58224 4.9025 0.379746 5.77475 0.322248 7.05175C0.264999 8.33175 0.25 8.741 0.25 12C0.25 15.259 0.2645 15.6668 0.322498 16.9468C0.381246 18.2243 0.58349 19.0962 0.879981 19.8592C1.18672 20.6485 1.59671 21.318 2.26394 21.985C2.93067 22.6525 3.60015 23.0635 4.38888 23.37C5.15235 23.6667 6.02458 23.869 7.30179 23.9275C8.58175 23.9858 8.99049 24 12.2491 24C15.5083 24 15.916 23.9858 17.196 23.9275C18.4734 23.869 19.3464 23.6667 20.1099 23.37C20.8989 23.0635 21.5674 22.6525 22.2341 21.985C22.9016 21.318 23.3116 20.6485 23.619 19.8595C23.914 19.0963 24.1165 18.224 24.1765 16.947C24.234 15.667 24.249 15.259 24.249 12C24.249 8.741 24.234 8.332 24.1765 7.052C24.1165 5.7745 23.914 4.9025 23.619 4.1395C23.3116 3.35025 22.9016 2.68075 22.2341 2.01375C21.5666 1.34625 20.8991 0.93625 20.1091 0.63C19.3442 0.33325 18.4717 0.131 17.1942 0.0725002C15.9143 0.0142502 15.5068 0 12.2469 0H12.2506ZM11.1742 2.1625C11.4937 2.162 11.8501 2.1625 12.2506 2.1625C15.4545 2.1625 15.8343 2.174 17.0995 2.2315C18.2695 2.285 18.9044 2.4805 19.3274 2.64475C19.8874 2.86225 20.2866 3.12225 20.7064 3.54225C21.1264 3.96225 21.3864 4.36225 21.6044 4.92225C21.7686 5.34475 21.9643 5.97975 22.0176 7.14975C22.0751 8.41475 22.0876 8.79475 22.0876 11.9972C22.0876 15.1997 22.0751 15.5797 22.0176 16.8447C21.9641 18.0147 21.7686 18.6497 21.6044 19.0723C21.3869 19.6322 21.1264 20.031 20.7064 20.4508C20.2864 20.8708 19.8877 21.1307 19.3274 21.3482C18.9049 21.5133 18.2695 21.7083 17.0995 21.7617C15.8345 21.8193 15.4545 21.8318 12.2506 21.8318C9.04648 21.8318 8.66675 21.8193 7.40178 21.7617C6.23182 21.7077 5.59684 21.5122 5.1736 21.348C4.61362 21.1305 4.21363 20.8705 3.79364 20.4505C3.37366 20.0305 3.11366 19.6315 2.89567 19.0713C2.73143 18.6488 2.53568 18.0138 2.48243 16.8438C2.42493 15.5787 2.41343 15.1987 2.41343 11.9942C2.41343 8.78975 2.42493 8.41175 2.48243 7.14675C2.53593 5.97675 2.73143 5.34175 2.89567 4.91875C3.11316 4.35875 3.37366 3.95875 3.79364 3.53875C4.21363 3.11875 4.61362 2.85875 5.1736 2.64075C5.59659 2.47575 6.23182 2.28075 7.40178 2.227C8.50875 2.177 8.93774 2.162 11.1742 2.1595V2.1625ZM18.6559 4.155C17.861 4.155 17.216 4.79925 17.216 5.5945C17.216 6.3895 17.861 7.0345 18.6559 7.0345C19.4509 7.0345 20.0959 6.3895 20.0959 5.5945C20.0959 4.7995 19.4509 4.1545 18.6559 4.1545V4.155ZM12.2506 5.8375C8.84749 5.8375 6.08832 8.59675 6.08832 12C6.08832 15.4032 8.84749 18.1612 12.2506 18.1612C15.6538 18.1612 18.412 15.4032 18.412 12C18.412 8.59675 15.6535 5.8375 12.2504 5.8375H12.2506ZM12.2506 8C14.4596 8 16.2505 9.79075 16.2505 12C16.2505 14.209 14.4596 16 12.2506 16C10.0415 16 8.25076 14.209 8.25076 12C8.25076 9.79075 10.0415 8 12.2506 8Z" fill="url(#paint0_radial_997_557)"/>
<path d="M12.2506 0C8.99174 0 8.58275 0.0142502 7.30279 0.0725002C6.02533 0.131 5.15335 0.33325 4.39038 0.63C3.60115 0.9365 2.93167 1.3465 2.26469 2.01375C1.59721 2.68075 1.18722 3.35025 0.879731 4.13925C0.58224 4.9025 0.379746 5.77475 0.322248 7.05175C0.264999 8.33175 0.25 8.741 0.25 12C0.25 15.259 0.2645 15.6668 0.322498 16.9468C0.381246 18.2243 0.58349 19.0963 0.879981 19.8592C1.18672 20.6485 1.59671 21.318 2.26394 21.985C2.93067 22.6525 3.60015 23.0635 4.38888 23.37C5.15235 23.6667 6.02458 23.869 7.30179 23.9275C8.58175 23.9858 8.99049 24 12.2491 24C15.5083 24 15.916 23.9858 17.196 23.9275C18.4734 23.869 19.3464 23.6667 20.1099 23.37C20.8989 23.0635 21.5674 22.6525 22.2341 21.985C22.9016 21.318 23.3116 20.6485 23.619 19.8595C23.914 19.0963 24.1165 18.224 24.1765 16.947C24.234 15.667 24.249 15.259 24.249 12C24.249 8.741 24.234 8.332 24.1765 7.052C24.1165 5.7745 23.914 4.9025 23.619 4.1395C23.3116 3.35025 22.9016 2.68075 22.2341 2.01375C21.5666 1.34625 20.8991 0.93625 20.1092 0.63C19.3442 0.33325 18.4717 0.131 17.1942 0.0725002C15.9143 0.0142502 15.5068 0 12.2469 0H12.2506ZM11.1742 2.1625C11.4937 2.162 11.8501 2.1625 12.2506 2.1625C15.4545 2.1625 15.8343 2.174 17.0995 2.2315C18.2695 2.285 18.9044 2.4805 19.3274 2.64475C19.8874 2.86225 20.2866 3.12225 20.7064 3.54225C21.1264 3.96225 21.3864 4.36225 21.6044 4.92225C21.7686 5.34475 21.9643 5.97975 22.0176 7.14975C22.0751 8.41475 22.0876 8.79475 22.0876 11.9973C22.0876 15.1998 22.0751 15.5798 22.0176 16.8448C21.9641 18.0148 21.7686 18.6497 21.6044 19.0723C21.3869 19.6322 21.1264 20.031 20.7064 20.4508C20.2864 20.8708 19.8877 21.1308 19.3274 21.3483C18.9049 21.5133 18.2695 21.7083 17.0995 21.7617C15.8345 21.8193 15.4545 21.8318 12.2506 21.8318C9.04648 21.8318 8.66675 21.8193 7.40178 21.7617C6.23182 21.7078 5.59684 21.5123 5.1736 21.348C4.61362 21.1305 4.21363 20.8705 3.79364 20.4505C3.37366 20.0305 3.11366 19.6315 2.89567 19.0713C2.73143 18.6488 2.53568 18.0138 2.48243 16.8438C2.42493 15.5787 2.41343 15.1987 2.41343 11.9943C2.41343 8.78975 2.42493 8.41175 2.48243 7.14675C2.53593 5.97675 2.73143 5.34175 2.89567 4.91875C3.11316 4.35875 3.37366 3.95875 3.79364 3.53875C4.21363 3.11875 4.61362 2.85875 5.1736 2.64075C5.59659 2.47575 6.23182 2.28075 7.40178 2.227C8.50875 2.177 8.93774 2.162 11.1742 2.1595V2.1625ZM18.6559 4.155C17.861 4.155 17.216 4.79925 17.216 5.5945C17.216 6.3895 17.861 7.0345 18.6559 7.0345C19.4509 7.0345 20.0959 6.3895 20.0959 5.5945C20.0959 4.7995 19.4509 4.1545 18.6559 4.1545V4.155ZM12.2506 5.8375C8.84749 5.8375 6.08832 8.59675 6.08832 12C6.08832 15.4032 8.84749 18.1612 12.2506 18.1612C15.6538 18.1612 18.412 15.4032 18.412 12C18.412 8.59675 15.6535 5.8375 12.2504 5.8375H12.2506ZM12.2506 8C14.4596 8 16.2505 9.79075 16.2505 12C16.2505 14.209 14.4596 16 12.2506 16C10.0415 16 8.25076 14.209 8.25076 12C8.25076 9.79075 10.0415 8 12.2506 8Z" fill="url(#paint1_radial_997_557)"/>
</g>
<defs>
<radialGradient id="paint0_radial_997_557" cx="0" cy="0" r="1" gradientUnits="userSpaceOnUse" gradientTransform="translate(6.62477 25.8485) rotate(-90) scale(23.7858 22.1217)">
<stop stop-color="#FFDD55"/>
<stop offset="0.1" stop-color="#FFDD55"/>
<stop offset="0.5" stop-color="#FF543E"/>
<stop offset="1" stop-color="#C837AB"/>
</radialGradient>
<radialGradient id="paint1_radial_997_557" cx="0" cy="0" r="1" gradientUnits="userSpaceOnUse" gradientTransform="translate(-3.76996 1.72892) rotate(78.6811) scale(10.6323 43.8252)">
<stop stop-color="#3771C8"/>
<stop offset="0.128" stop-color="#3771C8"/>
<stop offset="1" stop-color="#6600FF" stop-opacity="0"/>
</radialGradient>
<clipPath id="clip0_997_557">
<rect width="24" height="24" fill="white" transform="translate(0.25)"/>
</clipPath>
</defs>
</svg>
