<svg width="25" height="24" viewBox="0 0 25 24" fill="none" xmlns="http://www.w3.org/2000/svg">
<g clip-path="url(#clip0_997_544)">
<path d="M7.79752 21.7512C16.8542 21.7512 21.8078 14.2479 21.8078 7.74101C21.8078 7.52789 21.8078 7.31573 21.7934 7.10453C22.757 6.40748 23.5889 5.54441 24.25 4.55573C23.3514 4.95413 22.398 5.21528 21.4218 5.33045C22.4498 4.71514 23.2192 3.74723 23.5866 2.60693C22.6201 3.18054 21.5626 3.58475 20.4599 3.80213C19.7175 3.01271 18.7356 2.48997 17.6662 2.31481C16.5968 2.13966 15.4994 2.32184 14.544 2.83318C13.5885 3.34452 12.8282 4.1565 12.3807 5.14348C11.9333 6.13045 11.8235 7.23739 12.0686 8.29301C10.1109 8.19481 8.19576 7.68604 6.44745 6.79973C4.69915 5.91343 3.15676 4.66939 1.9204 3.14837C1.29073 4.23236 1.09787 5.5156 1.3811 6.73679C1.66433 7.95798 2.40234 9.02532 3.44488 9.72149C2.66123 9.69853 1.89465 9.48712 1.21 9.10517V9.16757C1.21031 10.3044 1.60385 11.4062 2.32387 12.2859C3.04389 13.1657 4.04606 13.7693 5.1604 13.9944C4.43548 14.1922 3.67487 14.2211 2.93704 14.0789C3.25181 15.0573 3.86443 15.9128 4.68924 16.5259C5.51405 17.139 6.50983 17.479 7.53736 17.4985C6.51644 18.3009 5.34731 18.8942 4.09687 19.2444C2.84643 19.5947 1.53921 19.6949 0.25 19.5394C2.50183 20.9844 5.12192 21.7509 7.79752 21.7474" fill="#1DA1F2"/>
</g>
<defs>
<clipPath id="clip0_997_544">
<rect width="24" height="24" fill="white" transform="translate(0.25)"/>
</clipPath>
</defs>
</svg>
