<svg width="24" height="24" viewBox="0 0 24 24" fill="none" xmlns="http://www.w3.org/2000/svg">
<g clip-path="url(#clip0_997_550)">
<path d="M6.146 20.5547L6.52608 20.7486C8.10999 21.7181 9.8838 22.1706 11.6577 22.1706C17.2327 22.1706 21.7941 17.5167 21.7941 11.8285C21.7941 9.1137 20.717 6.4635 18.8165 4.52432C16.9159 2.58514 14.3818 1.48633 11.6577 1.48633C6.0827 1.48633 1.52124 6.14029 1.58464 11.8932C1.58464 13.8322 2.15481 15.7068 3.10506 17.3227L3.35845 17.7106L2.34489 21.5243L6.146 20.5547Z" fill="#00E676"/>
<path d="M19.8926 3.49047C17.7387 1.22817 14.7611 0 11.7202 0C5.25831 0 0.0633926 5.36497 0.126694 11.8934C0.126694 13.9619 0.696864 15.9657 1.64721 17.7756L0 23.9162L6.14517 22.3003C7.85568 23.2699 9.75619 23.7224 11.6569 23.7224C18.0554 23.7224 23.2504 18.3573 23.2504 11.8289C23.2504 8.66159 22.0466 5.68819 19.8927 3.49047H19.8926ZM11.7202 21.7186C10.0097 21.7186 8.29916 21.2662 6.84204 20.3613L6.46196 20.1673L2.78755 21.1369L3.7378 17.4525L3.48441 17.0646C0.696864 12.4754 2.02729 6.3992 6.58865 3.55506C11.15 0.711012 17.0418 2.06845 19.8293 6.72241C22.6168 11.3764 21.2864 17.3878 16.7251 20.2319C15.2679 21.2015 13.4941 21.7185 11.7202 21.7185V21.7186ZM17.2952 14.5438L16.5983 14.2206C16.5983 14.2206 15.5848 13.7681 14.9512 13.4449C14.8878 13.4449 14.8245 13.3802 14.7611 13.3802C14.571 13.3802 14.4443 13.4449 14.3176 13.5096C14.3176 13.5096 14.2543 13.5742 13.3674 14.6084C13.304 14.7377 13.1773 14.8023 13.0506 14.8023H12.9872C12.9239 14.8023 12.7972 14.7377 12.7338 14.6731L12.417 14.5438C11.7202 14.2206 11.0867 13.8327 10.5798 13.3156C10.4531 13.1864 10.2631 13.0571 10.1364 12.9278C9.69289 12.4754 9.24941 11.9582 8.93272 11.3765L8.86933 11.2472C8.80603 11.1825 8.80603 11.1179 8.74264 10.9887C8.74264 10.8594 8.74264 10.7301 8.80603 10.6655C8.80603 10.6655 9.05942 10.3422 9.24941 10.1484C9.3762 10.019 9.4395 9.82517 9.56619 9.69591C9.69289 9.50196 9.75628 9.24343 9.69289 9.04948C9.62959 8.72627 8.86933 6.98103 8.67933 6.59324C8.55255 6.39929 8.42595 6.3347 8.23586 6.27002H7.53899C7.41221 6.27002 7.28561 6.3347 7.15882 6.3347L7.09543 6.39929C6.96873 6.46397 6.84204 6.59324 6.71534 6.65782C6.58865 6.78718 6.52526 6.91636 6.39856 7.04571C5.95509 7.62746 5.7017 8.33847 5.7017 9.04948C5.7017 9.56655 5.82839 10.0837 6.01848 10.5362L6.08187 10.7301C6.65204 11.9582 7.41221 13.0571 8.42595 14.0267L8.67933 14.2852C8.86933 14.4791 9.05942 14.6084 9.18611 14.8023C10.5165 15.9658 12.037 16.8061 13.7475 17.2586C13.9376 17.3232 14.1909 17.3232 14.381 17.3879H15.0145C15.3313 17.3879 15.7114 17.2586 15.9648 17.1293C16.1548 17.0001 16.2815 17.0001 16.4082 16.8708L16.535 16.7414C16.6617 16.6122 16.7884 16.5476 16.9151 16.4183C17.0418 16.2891 17.1685 16.1598 17.2319 16.0304C17.3586 15.7719 17.4219 15.4487 17.4853 15.1256V14.6731C17.4853 14.6731 17.4219 14.6084 17.2952 14.5438Z" fill="white"/>
</g>
<defs>
<clipPath id="clip0_997_550">
<rect width="23.25" height="24" fill="white"/>
</clipPath>
</defs>
</svg>
